<?xml version="1.0" encoding="UTF-8"?>
<svg id="Layer_1" data-name="Layer 1" xmlns="http://www.w3.org/2000/svg" viewBox="0 0 1300 1300">
  <defs>
    <style>
      .cls-1 {
        fill: #fff;
        stroke-width: 0px;
      }
    </style>
  </defs>
  <g id="llama">
    <polygon class="cls-1" points="659.62 960.16 492.63 711.51 491.5 711.51 429.87 1253.12 659.62 960.16"/>
    <polygon class="cls-1" points="370.86 1165.8 315.32 1031.3 304.56 1259.88 370.86 1165.8"/>
    <path class="cls-1" d="M735.91,1071.5l70.46,198.77c.3.85.94,1.52,1.75,1.89l22.18-62.89-94.38-137.77Z"/>
    <path class="cls-1" d="M1122.2,868.53c.06.03.31.13.86.13,2.12,0,5.15-1.35,7.24-2.88-.44-2.86-1.42-5.68-2.89-8.24l-112.74-196.72-.58.23-1.44.27c.23,0,.45-.04.65-.11l-176.79,64.91,285.68,142.41Z"/>
    <polygon class="cls-1" points="405.17 26.17 422.44 173.29 440.11 173.47 449.83 87.77 405.17 26.17"/>
    <path class="cls-1" d="M825.55,729.39l-322.99-17.45,163.3,243.16,217.43,317.39c1.31-.14,2.4-1.09,2.7-2.4l104.56-458.41-165-82.29Z"/>
    <path class="cls-1" d="M464.62,28.26l-16.97,149.7-4.02,3.55-233.98-2.41c-3.48,0-6.57,2.08-7.87,5.31l-15.34,38.2c-2.09,5.2.24,11.17,5.3,13.59l129.01,61.91,2.01,5.03-143.96,376.61,238.86,578.41c.94,2.28,2.6,4.15,4.06,4.69l110.44-986.25c-3.46-12.77-51.07-188.31-67.53-248.34Z"/>
  </g>
</svg>